<mxfile host="app.diagrams.net" modified="2024-06-10T23:47:45.195Z" agent="Mozilla/5.0 (Macintosh; Intel Mac OS X 10.15; rv:126.0) Gecko/20100101 Firefox/126.0" etag="bXQ9CYIXZ_ZJMwEwYlgO" version="24.5.2" type="device">
  <diagram id="C5RBs43oDa-KdzZeNtuy" name="Page-1">
    <mxGraphModel dx="3088" dy="1905" grid="1" gridSize="10" guides="1" tooltips="1" connect="1" arrows="1" fold="1" page="1" pageScale="1" pageWidth="827" pageHeight="1169" math="0" shadow="0">
      <root>
        <mxCell id="WIyWlLk6GJQsqaUBKTNV-0" />
        <mxCell id="WIyWlLk6GJQsqaUBKTNV-1" parent="WIyWlLk6GJQsqaUBKTNV-0" />
        <mxCell id="1ritAqMeykAcv_voQN3b-46" style="edgeStyle=orthogonalEdgeStyle;rounded=0;orthogonalLoop=1;jettySize=auto;html=1;exitX=0;exitY=1;exitDx=0;exitDy=0;entryX=0.25;entryY=0;entryDx=0;entryDy=0;" edge="1" parent="WIyWlLk6GJQsqaUBKTNV-1" source="1ritAqMeykAcv_voQN3b-9" target="1ritAqMeykAcv_voQN3b-21">
          <mxGeometry relative="1" as="geometry" />
        </mxCell>
        <mxCell id="1ritAqMeykAcv_voQN3b-50" value="principal" style="edgeLabel;html=1;align=center;verticalAlign=middle;resizable=0;points=[];" vertex="1" connectable="0" parent="1ritAqMeykAcv_voQN3b-46">
          <mxGeometry x="-0.008" y="2" relative="1" as="geometry">
            <mxPoint as="offset" />
          </mxGeometry>
        </mxCell>
        <mxCell id="1ritAqMeykAcv_voQN3b-47" style="edgeStyle=orthogonalEdgeStyle;rounded=0;orthogonalLoop=1;jettySize=auto;html=1;exitX=1;exitY=1;exitDx=0;exitDy=0;entryX=0.75;entryY=0;entryDx=0;entryDy=0;" edge="1" parent="WIyWlLk6GJQsqaUBKTNV-1" source="1ritAqMeykAcv_voQN3b-9" target="1ritAqMeykAcv_voQN3b-28">
          <mxGeometry relative="1" as="geometry" />
        </mxCell>
        <mxCell id="1ritAqMeykAcv_voQN3b-53" value="adicional" style="edgeLabel;html=1;align=center;verticalAlign=middle;resizable=0;points=[];" vertex="1" connectable="0" parent="1ritAqMeykAcv_voQN3b-47">
          <mxGeometry y="1" relative="1" as="geometry">
            <mxPoint as="offset" />
          </mxGeometry>
        </mxCell>
        <mxCell id="1ritAqMeykAcv_voQN3b-48" style="edgeStyle=orthogonalEdgeStyle;rounded=0;orthogonalLoop=1;jettySize=auto;html=1;exitX=0.25;exitY=1;exitDx=0;exitDy=0;entryX=0.25;entryY=0;entryDx=0;entryDy=0;" edge="1" parent="WIyWlLk6GJQsqaUBKTNV-1" source="1ritAqMeykAcv_voQN3b-9" target="1ritAqMeykAcv_voQN3b-17">
          <mxGeometry relative="1" as="geometry" />
        </mxCell>
        <mxCell id="1ritAqMeykAcv_voQN3b-51" value="aderezo" style="edgeLabel;html=1;align=center;verticalAlign=middle;resizable=0;points=[];" vertex="1" connectable="0" parent="1ritAqMeykAcv_voQN3b-48">
          <mxGeometry x="-0.5364" y="2" relative="1" as="geometry">
            <mxPoint as="offset" />
          </mxGeometry>
        </mxCell>
        <mxCell id="1ritAqMeykAcv_voQN3b-49" style="edgeStyle=orthogonalEdgeStyle;rounded=0;orthogonalLoop=1;jettySize=auto;html=1;exitX=0.75;exitY=1;exitDx=0;exitDy=0;entryX=0.75;entryY=0;entryDx=0;entryDy=0;" edge="1" parent="WIyWlLk6GJQsqaUBKTNV-1" source="1ritAqMeykAcv_voQN3b-9" target="1ritAqMeykAcv_voQN3b-25">
          <mxGeometry relative="1" as="geometry" />
        </mxCell>
        <mxCell id="1ritAqMeykAcv_voQN3b-52" value="pan" style="edgeLabel;html=1;align=center;verticalAlign=middle;resizable=0;points=[];" vertex="1" connectable="0" parent="1ritAqMeykAcv_voQN3b-49">
          <mxGeometry x="-0.5273" y="1" relative="1" as="geometry">
            <mxPoint as="offset" />
          </mxGeometry>
        </mxCell>
        <mxCell id="1ritAqMeykAcv_voQN3b-9" value="Sandwich" style="swimlane;fontStyle=1;align=center;verticalAlign=top;childLayout=stackLayout;horizontal=1;startSize=26;horizontalStack=0;resizeParent=1;resizeParentMax=0;resizeLast=0;collapsible=1;marginBottom=0;whiteSpace=wrap;html=1;" vertex="1" parent="WIyWlLk6GJQsqaUBKTNV-1">
          <mxGeometry x="140" y="30" width="600" height="120" as="geometry">
            <mxRectangle x="360" y="80" width="90" height="30" as="alternateBounds" />
          </mxGeometry>
        </mxCell>
        <mxCell id="1ritAqMeykAcv_voQN3b-10" value="+ field: type" style="text;strokeColor=none;fillColor=none;align=left;verticalAlign=top;spacingLeft=4;spacingRight=4;overflow=hidden;rotatable=0;points=[[0,0.5],[1,0.5]];portConstraint=eastwest;whiteSpace=wrap;html=1;" vertex="1" parent="1ritAqMeykAcv_voQN3b-9">
          <mxGeometry y="26" width="600" height="26" as="geometry" />
        </mxCell>
        <mxCell id="1ritAqMeykAcv_voQN3b-11" value="" style="line;strokeWidth=1;fillColor=none;align=left;verticalAlign=middle;spacingTop=-1;spacingLeft=3;spacingRight=3;rotatable=0;labelPosition=right;points=[];portConstraint=eastwest;strokeColor=inherit;" vertex="1" parent="1ritAqMeykAcv_voQN3b-9">
          <mxGeometry y="52" width="600" height="8" as="geometry" />
        </mxCell>
        <mxCell id="1ritAqMeykAcv_voQN3b-12" value="&lt;div&gt;+ &amp;lt;&amp;lt;create&amp;gt;&amp;gt; createSandwich(pan: Pan, aderezo: Aderezo, principal: Principal, adicional: Adicional): Sandwich&lt;/div&gt;&lt;div&gt;&lt;br&gt;&lt;/div&gt;&lt;div&gt;+ calcularPrecioTotal(): Real&lt;br&gt;&lt;/div&gt;" style="text;strokeColor=none;fillColor=none;align=left;verticalAlign=top;spacingLeft=4;spacingRight=4;overflow=hidden;rotatable=0;points=[[0,0.5],[1,0.5]];portConstraint=eastwest;whiteSpace=wrap;html=1;" vertex="1" parent="1ritAqMeykAcv_voQN3b-9">
          <mxGeometry y="60" width="600" height="60" as="geometry" />
        </mxCell>
        <mxCell id="1ritAqMeykAcv_voQN3b-17" value="&lt;div&gt;&amp;lt;&amp;lt;abstract&amp;gt;&amp;gt;&lt;/div&gt;&lt;div&gt;Aderezo&lt;br&gt;&lt;/div&gt;" style="swimlane;fontStyle=1;align=center;verticalAlign=top;childLayout=stackLayout;horizontal=1;startSize=40;horizontalStack=0;resizeParent=1;resizeParentMax=0;resizeLast=0;collapsible=1;marginBottom=0;whiteSpace=wrap;html=1;" vertex="1" parent="WIyWlLk6GJQsqaUBKTNV-1">
          <mxGeometry y="500" width="160" height="48" as="geometry">
            <mxRectangle x="500" y="280" width="110" height="40" as="alternateBounds" />
          </mxGeometry>
        </mxCell>
        <mxCell id="1ritAqMeykAcv_voQN3b-21" value="&lt;div&gt;&amp;lt;&amp;lt;abstract&amp;gt;&amp;gt;&lt;/div&gt;&lt;div&gt;Principal&lt;br&gt;&lt;/div&gt;" style="swimlane;fontStyle=1;align=center;verticalAlign=top;childLayout=stackLayout;horizontal=1;startSize=40;horizontalStack=0;resizeParent=1;resizeParentMax=0;resizeLast=0;collapsible=1;marginBottom=0;whiteSpace=wrap;html=1;" vertex="1" parent="WIyWlLk6GJQsqaUBKTNV-1">
          <mxGeometry x="-720" y="360" width="160" height="48" as="geometry">
            <mxRectangle x="100" y="300" width="110" height="40" as="alternateBounds" />
          </mxGeometry>
        </mxCell>
        <mxCell id="1ritAqMeykAcv_voQN3b-25" value="&lt;div&gt;&amp;lt;&amp;lt;abstract&amp;gt;&amp;gt;&lt;/div&gt;Pan" style="swimlane;fontStyle=1;align=center;verticalAlign=top;childLayout=stackLayout;horizontal=1;startSize=40;horizontalStack=0;resizeParent=1;resizeParentMax=0;resizeLast=0;collapsible=1;marginBottom=0;whiteSpace=wrap;html=1;" vertex="1" parent="WIyWlLk6GJQsqaUBKTNV-1">
          <mxGeometry x="720" y="500" width="160" height="48" as="geometry">
            <mxRectangle x="340" y="420" width="110" height="40" as="alternateBounds" />
          </mxGeometry>
        </mxCell>
        <mxCell id="1ritAqMeykAcv_voQN3b-28" value="&lt;div&gt;&amp;lt;&amp;lt;abstract&amp;gt;&amp;gt;&lt;/div&gt;Adicional" style="swimlane;fontStyle=1;align=center;verticalAlign=top;childLayout=stackLayout;horizontal=1;startSize=40;horizontalStack=0;resizeParent=1;resizeParentMax=0;resizeLast=0;collapsible=1;marginBottom=0;whiteSpace=wrap;html=1;" vertex="1" parent="WIyWlLk6GJQsqaUBKTNV-1">
          <mxGeometry x="1440" y="360" width="160" height="48" as="geometry">
            <mxRectangle x="540" y="420" width="110" height="40" as="alternateBounds" />
          </mxGeometry>
        </mxCell>
        <mxCell id="1ritAqMeykAcv_voQN3b-35" value="&lt;div&gt;&amp;lt;&amp;lt;interface&amp;gt;&amp;gt;&lt;br&gt;&lt;/div&gt;&lt;div&gt;Facturable&lt;/div&gt;" style="swimlane;fontStyle=1;align=center;verticalAlign=top;childLayout=stackLayout;horizontal=1;startSize=40;horizontalStack=0;resizeParent=1;resizeParentMax=0;resizeLast=0;collapsible=1;marginBottom=0;whiteSpace=wrap;html=1;" vertex="1" parent="WIyWlLk6GJQsqaUBKTNV-1">
          <mxGeometry x="360" y="200" width="160" height="74" as="geometry" />
        </mxCell>
        <mxCell id="1ritAqMeykAcv_voQN3b-37" value="" style="line;strokeWidth=1;fillColor=none;align=left;verticalAlign=middle;spacingTop=-1;spacingLeft=3;spacingRight=3;rotatable=0;labelPosition=right;points=[];portConstraint=eastwest;strokeColor=inherit;" vertex="1" parent="1ritAqMeykAcv_voQN3b-35">
          <mxGeometry y="40" width="160" height="8" as="geometry" />
        </mxCell>
        <mxCell id="1ritAqMeykAcv_voQN3b-38" value="+ getPrecio(): Real" style="text;strokeColor=none;fillColor=none;align=left;verticalAlign=top;spacingLeft=4;spacingRight=4;overflow=hidden;rotatable=0;points=[[0,0.5],[1,0.5]];portConstraint=eastwest;whiteSpace=wrap;html=1;" vertex="1" parent="1ritAqMeykAcv_voQN3b-35">
          <mxGeometry y="48" width="160" height="26" as="geometry" />
        </mxCell>
        <mxCell id="1ritAqMeykAcv_voQN3b-39" value="" style="endArrow=block;dashed=1;endFill=0;endSize=12;html=1;rounded=0;exitX=1;exitY=0;exitDx=0;exitDy=0;entryX=0;entryY=1;entryDx=0;entryDy=0;" edge="1" parent="WIyWlLk6GJQsqaUBKTNV-1" source="1ritAqMeykAcv_voQN3b-21" target="1ritAqMeykAcv_voQN3b-35">
          <mxGeometry width="160" relative="1" as="geometry">
            <mxPoint x="330" y="260" as="sourcePoint" />
            <mxPoint x="490" y="260" as="targetPoint" />
          </mxGeometry>
        </mxCell>
        <mxCell id="1ritAqMeykAcv_voQN3b-40" value="" style="endArrow=block;dashed=1;endFill=0;endSize=12;html=1;rounded=0;exitX=0.5;exitY=0;exitDx=0;exitDy=0;entryX=0.25;entryY=1;entryDx=0;entryDy=0;" edge="1" parent="WIyWlLk6GJQsqaUBKTNV-1" source="1ritAqMeykAcv_voQN3b-17" target="1ritAqMeykAcv_voQN3b-35">
          <mxGeometry width="160" relative="1" as="geometry">
            <mxPoint x="330" y="260" as="sourcePoint" />
            <mxPoint x="490" y="260" as="targetPoint" />
          </mxGeometry>
        </mxCell>
        <mxCell id="1ritAqMeykAcv_voQN3b-41" value="" style="endArrow=block;dashed=1;endFill=0;endSize=12;html=1;rounded=0;exitX=0.5;exitY=0;exitDx=0;exitDy=0;entryX=0.75;entryY=1;entryDx=0;entryDy=0;" edge="1" parent="WIyWlLk6GJQsqaUBKTNV-1" source="1ritAqMeykAcv_voQN3b-25" target="1ritAqMeykAcv_voQN3b-35">
          <mxGeometry width="160" relative="1" as="geometry">
            <mxPoint x="330" y="260" as="sourcePoint" />
            <mxPoint x="490" y="260" as="targetPoint" />
          </mxGeometry>
        </mxCell>
        <mxCell id="1ritAqMeykAcv_voQN3b-42" value="" style="endArrow=block;dashed=1;endFill=0;endSize=12;html=1;rounded=0;exitX=0;exitY=0;exitDx=0;exitDy=0;entryX=1;entryY=1;entryDx=0;entryDy=0;" edge="1" parent="WIyWlLk6GJQsqaUBKTNV-1" source="1ritAqMeykAcv_voQN3b-28" target="1ritAqMeykAcv_voQN3b-35">
          <mxGeometry width="160" relative="1" as="geometry">
            <mxPoint x="330" y="260" as="sourcePoint" />
            <mxPoint x="490" y="260" as="targetPoint" />
          </mxGeometry>
        </mxCell>
        <mxCell id="1ritAqMeykAcv_voQN3b-54" value="PanBrioche" style="swimlane;fontStyle=1;align=center;verticalAlign=top;childLayout=stackLayout;horizontal=1;startSize=26;horizontalStack=0;resizeParent=1;resizeParentMax=0;resizeLast=0;collapsible=1;marginBottom=0;whiteSpace=wrap;html=1;" vertex="1" parent="WIyWlLk6GJQsqaUBKTNV-1">
          <mxGeometry x="450" y="640" width="160" height="60" as="geometry" />
        </mxCell>
        <mxCell id="1ritAqMeykAcv_voQN3b-56" value="" style="line;strokeWidth=1;fillColor=none;align=left;verticalAlign=middle;spacingTop=-1;spacingLeft=3;spacingRight=3;rotatable=0;labelPosition=right;points=[];portConstraint=eastwest;strokeColor=inherit;" vertex="1" parent="1ritAqMeykAcv_voQN3b-54">
          <mxGeometry y="26" width="160" height="8" as="geometry" />
        </mxCell>
        <mxCell id="1ritAqMeykAcv_voQN3b-57" value="+ getPrecio(): Real" style="text;strokeColor=none;fillColor=none;align=left;verticalAlign=top;spacingLeft=4;spacingRight=4;overflow=hidden;rotatable=0;points=[[0,0.5],[1,0.5]];portConstraint=eastwest;whiteSpace=wrap;html=1;" vertex="1" parent="1ritAqMeykAcv_voQN3b-54">
          <mxGeometry y="34" width="160" height="26" as="geometry" />
        </mxCell>
        <mxCell id="1ritAqMeykAcv_voQN3b-58" value="PanConSemillas" style="swimlane;fontStyle=1;align=center;verticalAlign=top;childLayout=stackLayout;horizontal=1;startSize=26;horizontalStack=0;resizeParent=1;resizeParentMax=0;resizeLast=0;collapsible=1;marginBottom=0;whiteSpace=wrap;html=1;" vertex="1" parent="WIyWlLk6GJQsqaUBKTNV-1">
          <mxGeometry x="630" y="640" width="160" height="60" as="geometry" />
        </mxCell>
        <mxCell id="1ritAqMeykAcv_voQN3b-60" value="" style="line;strokeWidth=1;fillColor=none;align=left;verticalAlign=middle;spacingTop=-1;spacingLeft=3;spacingRight=3;rotatable=0;labelPosition=right;points=[];portConstraint=eastwest;strokeColor=inherit;" vertex="1" parent="1ritAqMeykAcv_voQN3b-58">
          <mxGeometry y="26" width="160" height="8" as="geometry" />
        </mxCell>
        <mxCell id="1ritAqMeykAcv_voQN3b-61" value="+ getPrecio(): Real" style="text;strokeColor=none;fillColor=none;align=left;verticalAlign=top;spacingLeft=4;spacingRight=4;overflow=hidden;rotatable=0;points=[[0,0.5],[1,0.5]];portConstraint=eastwest;whiteSpace=wrap;html=1;" vertex="1" parent="1ritAqMeykAcv_voQN3b-58">
          <mxGeometry y="34" width="160" height="26" as="geometry" />
        </mxCell>
        <mxCell id="1ritAqMeykAcv_voQN3b-62" value="PanIntegral" style="swimlane;fontStyle=1;align=center;verticalAlign=top;childLayout=stackLayout;horizontal=1;startSize=26;horizontalStack=0;resizeParent=1;resizeParentMax=0;resizeLast=0;collapsible=1;marginBottom=0;whiteSpace=wrap;html=1;" vertex="1" parent="WIyWlLk6GJQsqaUBKTNV-1">
          <mxGeometry x="810" y="640" width="160" height="60" as="geometry" />
        </mxCell>
        <mxCell id="1ritAqMeykAcv_voQN3b-64" value="" style="line;strokeWidth=1;fillColor=none;align=left;verticalAlign=middle;spacingTop=-1;spacingLeft=3;spacingRight=3;rotatable=0;labelPosition=right;points=[];portConstraint=eastwest;strokeColor=inherit;" vertex="1" parent="1ritAqMeykAcv_voQN3b-62">
          <mxGeometry y="26" width="160" height="8" as="geometry" />
        </mxCell>
        <mxCell id="1ritAqMeykAcv_voQN3b-65" value="+ getPrecio(): Real" style="text;strokeColor=none;fillColor=none;align=left;verticalAlign=top;spacingLeft=4;spacingRight=4;overflow=hidden;rotatable=0;points=[[0,0.5],[1,0.5]];portConstraint=eastwest;whiteSpace=wrap;html=1;" vertex="1" parent="1ritAqMeykAcv_voQN3b-62">
          <mxGeometry y="34" width="160" height="26" as="geometry" />
        </mxCell>
        <mxCell id="1ritAqMeykAcv_voQN3b-66" value="PanDeChipa" style="swimlane;fontStyle=1;align=center;verticalAlign=top;childLayout=stackLayout;horizontal=1;startSize=26;horizontalStack=0;resizeParent=1;resizeParentMax=0;resizeLast=0;collapsible=1;marginBottom=0;whiteSpace=wrap;html=1;" vertex="1" parent="WIyWlLk6GJQsqaUBKTNV-1">
          <mxGeometry x="990" y="640" width="160" height="60" as="geometry" />
        </mxCell>
        <mxCell id="1ritAqMeykAcv_voQN3b-68" value="" style="line;strokeWidth=1;fillColor=none;align=left;verticalAlign=middle;spacingTop=-1;spacingLeft=3;spacingRight=3;rotatable=0;labelPosition=right;points=[];portConstraint=eastwest;strokeColor=inherit;" vertex="1" parent="1ritAqMeykAcv_voQN3b-66">
          <mxGeometry y="26" width="160" height="8" as="geometry" />
        </mxCell>
        <mxCell id="1ritAqMeykAcv_voQN3b-69" value="+ getPrecio(): Real" style="text;strokeColor=none;fillColor=none;align=left;verticalAlign=top;spacingLeft=4;spacingRight=4;overflow=hidden;rotatable=0;points=[[0,0.5],[1,0.5]];portConstraint=eastwest;whiteSpace=wrap;html=1;" vertex="1" parent="1ritAqMeykAcv_voQN3b-66">
          <mxGeometry y="34" width="160" height="26" as="geometry" />
        </mxCell>
        <mxCell id="1ritAqMeykAcv_voQN3b-70" value="" style="endArrow=block;endFill=0;endSize=12;html=1;rounded=0;exitX=0.5;exitY=0;exitDx=0;exitDy=0;entryX=0;entryY=1;entryDx=0;entryDy=0;" edge="1" parent="WIyWlLk6GJQsqaUBKTNV-1" source="1ritAqMeykAcv_voQN3b-54" target="1ritAqMeykAcv_voQN3b-25">
          <mxGeometry width="160" relative="1" as="geometry">
            <mxPoint x="200" y="500" as="sourcePoint" />
            <mxPoint x="360" y="500" as="targetPoint" />
          </mxGeometry>
        </mxCell>
        <mxCell id="1ritAqMeykAcv_voQN3b-71" value="" style="endArrow=block;endFill=0;endSize=12;html=1;rounded=0;exitX=0.5;exitY=0;exitDx=0;exitDy=0;entryX=0.25;entryY=1;entryDx=0;entryDy=0;" edge="1" parent="WIyWlLk6GJQsqaUBKTNV-1" source="1ritAqMeykAcv_voQN3b-58" target="1ritAqMeykAcv_voQN3b-25">
          <mxGeometry width="160" relative="1" as="geometry">
            <mxPoint x="200" y="500" as="sourcePoint" />
            <mxPoint x="360" y="500" as="targetPoint" />
          </mxGeometry>
        </mxCell>
        <mxCell id="1ritAqMeykAcv_voQN3b-72" value="" style="endArrow=block;endFill=0;endSize=12;html=1;rounded=0;exitX=0.5;exitY=0;exitDx=0;exitDy=0;entryX=0.75;entryY=1;entryDx=0;entryDy=0;" edge="1" parent="WIyWlLk6GJQsqaUBKTNV-1" source="1ritAqMeykAcv_voQN3b-62" target="1ritAqMeykAcv_voQN3b-25">
          <mxGeometry width="160" relative="1" as="geometry">
            <mxPoint x="200" y="500" as="sourcePoint" />
            <mxPoint x="360" y="500" as="targetPoint" />
          </mxGeometry>
        </mxCell>
        <mxCell id="1ritAqMeykAcv_voQN3b-73" value="" style="endArrow=block;endFill=0;endSize=12;html=1;rounded=0;exitX=0.5;exitY=0;exitDx=0;exitDy=0;entryX=1;entryY=1;entryDx=0;entryDy=0;" edge="1" parent="WIyWlLk6GJQsqaUBKTNV-1" source="1ritAqMeykAcv_voQN3b-66" target="1ritAqMeykAcv_voQN3b-25">
          <mxGeometry width="160" relative="1" as="geometry">
            <mxPoint x="200" y="500" as="sourcePoint" />
            <mxPoint x="360" y="500" as="targetPoint" />
          </mxGeometry>
        </mxCell>
        <mxCell id="1ritAqMeykAcv_voQN3b-74" value="Mayonesa" style="swimlane;fontStyle=1;align=center;verticalAlign=top;childLayout=stackLayout;horizontal=1;startSize=26;horizontalStack=0;resizeParent=1;resizeParentMax=0;resizeLast=0;collapsible=1;marginBottom=0;whiteSpace=wrap;html=1;" vertex="1" parent="WIyWlLk6GJQsqaUBKTNV-1">
          <mxGeometry x="-270" y="640" width="160" height="60" as="geometry" />
        </mxCell>
        <mxCell id="1ritAqMeykAcv_voQN3b-76" value="" style="line;strokeWidth=1;fillColor=none;align=left;verticalAlign=middle;spacingTop=-1;spacingLeft=3;spacingRight=3;rotatable=0;labelPosition=right;points=[];portConstraint=eastwest;strokeColor=inherit;" vertex="1" parent="1ritAqMeykAcv_voQN3b-74">
          <mxGeometry y="26" width="160" height="8" as="geometry" />
        </mxCell>
        <mxCell id="1ritAqMeykAcv_voQN3b-77" value="+ getPrecio(): Real" style="text;strokeColor=none;fillColor=none;align=left;verticalAlign=top;spacingLeft=4;spacingRight=4;overflow=hidden;rotatable=0;points=[[0,0.5],[1,0.5]];portConstraint=eastwest;whiteSpace=wrap;html=1;" vertex="1" parent="1ritAqMeykAcv_voQN3b-74">
          <mxGeometry y="34" width="160" height="26" as="geometry" />
        </mxCell>
        <mxCell id="1ritAqMeykAcv_voQN3b-78" value="NullAderezo" style="swimlane;fontStyle=1;align=center;verticalAlign=top;childLayout=stackLayout;horizontal=1;startSize=26;horizontalStack=0;resizeParent=1;resizeParentMax=0;resizeLast=0;collapsible=1;marginBottom=0;whiteSpace=wrap;html=1;" vertex="1" parent="WIyWlLk6GJQsqaUBKTNV-1">
          <mxGeometry x="-90" y="640" width="160" height="60" as="geometry" />
        </mxCell>
        <mxCell id="1ritAqMeykAcv_voQN3b-79" value="" style="line;strokeWidth=1;fillColor=none;align=left;verticalAlign=middle;spacingTop=-1;spacingLeft=3;spacingRight=3;rotatable=0;labelPosition=right;points=[];portConstraint=eastwest;strokeColor=inherit;" vertex="1" parent="1ritAqMeykAcv_voQN3b-78">
          <mxGeometry y="26" width="160" height="8" as="geometry" />
        </mxCell>
        <mxCell id="1ritAqMeykAcv_voQN3b-80" value="+ getPrecio(): Real" style="text;strokeColor=none;fillColor=none;align=left;verticalAlign=top;spacingLeft=4;spacingRight=4;overflow=hidden;rotatable=0;points=[[0,0.5],[1,0.5]];portConstraint=eastwest;whiteSpace=wrap;html=1;" vertex="1" parent="1ritAqMeykAcv_voQN3b-78">
          <mxGeometry y="34" width="160" height="26" as="geometry" />
        </mxCell>
        <mxCell id="1ritAqMeykAcv_voQN3b-81" value="Salsa Criolla" style="swimlane;fontStyle=1;align=center;verticalAlign=top;childLayout=stackLayout;horizontal=1;startSize=26;horizontalStack=0;resizeParent=1;resizeParentMax=0;resizeLast=0;collapsible=1;marginBottom=0;whiteSpace=wrap;html=1;" vertex="1" parent="WIyWlLk6GJQsqaUBKTNV-1">
          <mxGeometry x="90" y="640" width="160" height="60" as="geometry" />
        </mxCell>
        <mxCell id="1ritAqMeykAcv_voQN3b-82" value="" style="line;strokeWidth=1;fillColor=none;align=left;verticalAlign=middle;spacingTop=-1;spacingLeft=3;spacingRight=3;rotatable=0;labelPosition=right;points=[];portConstraint=eastwest;strokeColor=inherit;" vertex="1" parent="1ritAqMeykAcv_voQN3b-81">
          <mxGeometry y="26" width="160" height="8" as="geometry" />
        </mxCell>
        <mxCell id="1ritAqMeykAcv_voQN3b-83" value="+ getPrecio(): Real" style="text;strokeColor=none;fillColor=none;align=left;verticalAlign=top;spacingLeft=4;spacingRight=4;overflow=hidden;rotatable=0;points=[[0,0.5],[1,0.5]];portConstraint=eastwest;whiteSpace=wrap;html=1;" vertex="1" parent="1ritAqMeykAcv_voQN3b-81">
          <mxGeometry y="34" width="160" height="26" as="geometry" />
        </mxCell>
        <mxCell id="1ritAqMeykAcv_voQN3b-84" value="Salsa Tartara" style="swimlane;fontStyle=1;align=center;verticalAlign=top;childLayout=stackLayout;horizontal=1;startSize=26;horizontalStack=0;resizeParent=1;resizeParentMax=0;resizeLast=0;collapsible=1;marginBottom=0;whiteSpace=wrap;html=1;" vertex="1" parent="WIyWlLk6GJQsqaUBKTNV-1">
          <mxGeometry x="270" y="640" width="160" height="60" as="geometry" />
        </mxCell>
        <mxCell id="1ritAqMeykAcv_voQN3b-85" value="" style="line;strokeWidth=1;fillColor=none;align=left;verticalAlign=middle;spacingTop=-1;spacingLeft=3;spacingRight=3;rotatable=0;labelPosition=right;points=[];portConstraint=eastwest;strokeColor=inherit;" vertex="1" parent="1ritAqMeykAcv_voQN3b-84">
          <mxGeometry y="26" width="160" height="8" as="geometry" />
        </mxCell>
        <mxCell id="1ritAqMeykAcv_voQN3b-86" value="+ getPrecio(): Real" style="text;strokeColor=none;fillColor=none;align=left;verticalAlign=top;spacingLeft=4;spacingRight=4;overflow=hidden;rotatable=0;points=[[0,0.5],[1,0.5]];portConstraint=eastwest;whiteSpace=wrap;html=1;" vertex="1" parent="1ritAqMeykAcv_voQN3b-84">
          <mxGeometry y="34" width="160" height="26" as="geometry" />
        </mxCell>
        <mxCell id="1ritAqMeykAcv_voQN3b-87" value="" style="endArrow=block;endFill=0;endSize=12;html=1;rounded=0;exitX=0.5;exitY=0;exitDx=0;exitDy=0;entryX=0;entryY=1;entryDx=0;entryDy=0;" edge="1" parent="WIyWlLk6GJQsqaUBKTNV-1" source="1ritAqMeykAcv_voQN3b-74" target="1ritAqMeykAcv_voQN3b-17">
          <mxGeometry width="160" relative="1" as="geometry">
            <mxPoint x="220" y="500" as="sourcePoint" />
            <mxPoint x="380" y="500" as="targetPoint" />
          </mxGeometry>
        </mxCell>
        <mxCell id="1ritAqMeykAcv_voQN3b-88" value="" style="endArrow=block;endFill=0;endSize=12;html=1;rounded=0;exitX=0.5;exitY=0;exitDx=0;exitDy=0;entryX=0.25;entryY=1;entryDx=0;entryDy=0;" edge="1" parent="WIyWlLk6GJQsqaUBKTNV-1" source="1ritAqMeykAcv_voQN3b-78" target="1ritAqMeykAcv_voQN3b-17">
          <mxGeometry width="160" relative="1" as="geometry">
            <mxPoint x="220" y="500" as="sourcePoint" />
            <mxPoint x="380" y="500" as="targetPoint" />
          </mxGeometry>
        </mxCell>
        <mxCell id="1ritAqMeykAcv_voQN3b-89" value="" style="endArrow=block;endFill=0;endSize=12;html=1;rounded=0;exitX=0.5;exitY=0;exitDx=0;exitDy=0;entryX=0.75;entryY=1;entryDx=0;entryDy=0;" edge="1" parent="WIyWlLk6GJQsqaUBKTNV-1" source="1ritAqMeykAcv_voQN3b-81" target="1ritAqMeykAcv_voQN3b-17">
          <mxGeometry width="160" relative="1" as="geometry">
            <mxPoint x="220" y="500" as="sourcePoint" />
            <mxPoint x="380" y="500" as="targetPoint" />
          </mxGeometry>
        </mxCell>
        <mxCell id="1ritAqMeykAcv_voQN3b-90" value="" style="endArrow=block;endFill=0;endSize=12;html=1;rounded=0;exitX=0.5;exitY=0;exitDx=0;exitDy=0;entryX=1;entryY=1;entryDx=0;entryDy=0;" edge="1" parent="WIyWlLk6GJQsqaUBKTNV-1" source="1ritAqMeykAcv_voQN3b-84" target="1ritAqMeykAcv_voQN3b-17">
          <mxGeometry width="160" relative="1" as="geometry">
            <mxPoint x="220" y="500" as="sourcePoint" />
            <mxPoint x="380" y="500" as="targetPoint" />
          </mxGeometry>
        </mxCell>
        <mxCell id="1ritAqMeykAcv_voQN3b-91" value="CarneDeTernera" style="swimlane;fontStyle=1;align=center;verticalAlign=top;childLayout=stackLayout;horizontal=1;startSize=26;horizontalStack=0;resizeParent=1;resizeParentMax=0;resizeLast=0;collapsible=1;marginBottom=0;whiteSpace=wrap;html=1;" vertex="1" parent="WIyWlLk6GJQsqaUBKTNV-1">
          <mxGeometry x="-990" y="500" width="160" height="60" as="geometry" />
        </mxCell>
        <mxCell id="1ritAqMeykAcv_voQN3b-92" value="" style="line;strokeWidth=1;fillColor=none;align=left;verticalAlign=middle;spacingTop=-1;spacingLeft=3;spacingRight=3;rotatable=0;labelPosition=right;points=[];portConstraint=eastwest;strokeColor=inherit;" vertex="1" parent="1ritAqMeykAcv_voQN3b-91">
          <mxGeometry y="26" width="160" height="8" as="geometry" />
        </mxCell>
        <mxCell id="1ritAqMeykAcv_voQN3b-93" value="+ getPrecio(): Real" style="text;strokeColor=none;fillColor=none;align=left;verticalAlign=top;spacingLeft=4;spacingRight=4;overflow=hidden;rotatable=0;points=[[0,0.5],[1,0.5]];portConstraint=eastwest;whiteSpace=wrap;html=1;" vertex="1" parent="1ritAqMeykAcv_voQN3b-91">
          <mxGeometry y="34" width="160" height="26" as="geometry" />
        </mxCell>
        <mxCell id="1ritAqMeykAcv_voQN3b-94" value="ProvoletaGrillada" style="swimlane;fontStyle=1;align=center;verticalAlign=top;childLayout=stackLayout;horizontal=1;startSize=26;horizontalStack=0;resizeParent=1;resizeParentMax=0;resizeLast=0;collapsible=1;marginBottom=0;whiteSpace=wrap;html=1;" vertex="1" parent="WIyWlLk6GJQsqaUBKTNV-1">
          <mxGeometry x="-810" y="500" width="160" height="60" as="geometry" />
        </mxCell>
        <mxCell id="1ritAqMeykAcv_voQN3b-95" value="" style="line;strokeWidth=1;fillColor=none;align=left;verticalAlign=middle;spacingTop=-1;spacingLeft=3;spacingRight=3;rotatable=0;labelPosition=right;points=[];portConstraint=eastwest;strokeColor=inherit;" vertex="1" parent="1ritAqMeykAcv_voQN3b-94">
          <mxGeometry y="26" width="160" height="8" as="geometry" />
        </mxCell>
        <mxCell id="1ritAqMeykAcv_voQN3b-96" value="+ getPrecio(): Real" style="text;strokeColor=none;fillColor=none;align=left;verticalAlign=top;spacingLeft=4;spacingRight=4;overflow=hidden;rotatable=0;points=[[0,0.5],[1,0.5]];portConstraint=eastwest;whiteSpace=wrap;html=1;" vertex="1" parent="1ritAqMeykAcv_voQN3b-94">
          <mxGeometry y="34" width="160" height="26" as="geometry" />
        </mxCell>
        <mxCell id="1ritAqMeykAcv_voQN3b-97" value="MilanesaDeGirgolas" style="swimlane;fontStyle=1;align=center;verticalAlign=top;childLayout=stackLayout;horizontal=1;startSize=26;horizontalStack=0;resizeParent=1;resizeParentMax=0;resizeLast=0;collapsible=1;marginBottom=0;whiteSpace=wrap;html=1;" vertex="1" parent="WIyWlLk6GJQsqaUBKTNV-1">
          <mxGeometry x="-630" y="500" width="160" height="60" as="geometry" />
        </mxCell>
        <mxCell id="1ritAqMeykAcv_voQN3b-98" value="" style="line;strokeWidth=1;fillColor=none;align=left;verticalAlign=middle;spacingTop=-1;spacingLeft=3;spacingRight=3;rotatable=0;labelPosition=right;points=[];portConstraint=eastwest;strokeColor=inherit;" vertex="1" parent="1ritAqMeykAcv_voQN3b-97">
          <mxGeometry y="26" width="160" height="8" as="geometry" />
        </mxCell>
        <mxCell id="1ritAqMeykAcv_voQN3b-99" value="+ getPrecio(): Real" style="text;strokeColor=none;fillColor=none;align=left;verticalAlign=top;spacingLeft=4;spacingRight=4;overflow=hidden;rotatable=0;points=[[0,0.5],[1,0.5]];portConstraint=eastwest;whiteSpace=wrap;html=1;" vertex="1" parent="1ritAqMeykAcv_voQN3b-97">
          <mxGeometry y="34" width="160" height="26" as="geometry" />
        </mxCell>
        <mxCell id="1ritAqMeykAcv_voQN3b-100" value="CarneDePollo" style="swimlane;fontStyle=1;align=center;verticalAlign=top;childLayout=stackLayout;horizontal=1;startSize=26;horizontalStack=0;resizeParent=1;resizeParentMax=0;resizeLast=0;collapsible=1;marginBottom=0;whiteSpace=wrap;html=1;" vertex="1" parent="WIyWlLk6GJQsqaUBKTNV-1">
          <mxGeometry x="-450" y="500" width="160" height="60" as="geometry" />
        </mxCell>
        <mxCell id="1ritAqMeykAcv_voQN3b-101" value="" style="line;strokeWidth=1;fillColor=none;align=left;verticalAlign=middle;spacingTop=-1;spacingLeft=3;spacingRight=3;rotatable=0;labelPosition=right;points=[];portConstraint=eastwest;strokeColor=inherit;" vertex="1" parent="1ritAqMeykAcv_voQN3b-100">
          <mxGeometry y="26" width="160" height="8" as="geometry" />
        </mxCell>
        <mxCell id="1ritAqMeykAcv_voQN3b-102" value="+ getPrecio(): Real" style="text;strokeColor=none;fillColor=none;align=left;verticalAlign=top;spacingLeft=4;spacingRight=4;overflow=hidden;rotatable=0;points=[[0,0.5],[1,0.5]];portConstraint=eastwest;whiteSpace=wrap;html=1;" vertex="1" parent="1ritAqMeykAcv_voQN3b-100">
          <mxGeometry y="34" width="160" height="26" as="geometry" />
        </mxCell>
        <mxCell id="1ritAqMeykAcv_voQN3b-103" value="" style="endArrow=block;endFill=0;endSize=12;html=1;rounded=0;exitX=0.5;exitY=0;exitDx=0;exitDy=0;entryX=0;entryY=1;entryDx=0;entryDy=0;" edge="1" parent="WIyWlLk6GJQsqaUBKTNV-1" source="1ritAqMeykAcv_voQN3b-91" target="1ritAqMeykAcv_voQN3b-21">
          <mxGeometry width="160" relative="1" as="geometry">
            <mxPoint x="-440" y="360" as="sourcePoint" />
            <mxPoint x="-280" y="360" as="targetPoint" />
          </mxGeometry>
        </mxCell>
        <mxCell id="1ritAqMeykAcv_voQN3b-104" value="" style="endArrow=block;endFill=0;endSize=12;html=1;rounded=0;exitX=0.5;exitY=0;exitDx=0;exitDy=0;entryX=0.25;entryY=1;entryDx=0;entryDy=0;" edge="1" parent="WIyWlLk6GJQsqaUBKTNV-1" source="1ritAqMeykAcv_voQN3b-94" target="1ritAqMeykAcv_voQN3b-21">
          <mxGeometry width="160" relative="1" as="geometry">
            <mxPoint x="-440" y="360" as="sourcePoint" />
            <mxPoint x="-620" y="420" as="targetPoint" />
          </mxGeometry>
        </mxCell>
        <mxCell id="1ritAqMeykAcv_voQN3b-105" value="" style="endArrow=block;endFill=0;endSize=12;html=1;rounded=0;exitX=0.5;exitY=0;exitDx=0;exitDy=0;entryX=0.75;entryY=1;entryDx=0;entryDy=0;" edge="1" parent="WIyWlLk6GJQsqaUBKTNV-1" source="1ritAqMeykAcv_voQN3b-97" target="1ritAqMeykAcv_voQN3b-21">
          <mxGeometry width="160" relative="1" as="geometry">
            <mxPoint x="-440" y="360" as="sourcePoint" />
            <mxPoint x="-280" y="360" as="targetPoint" />
          </mxGeometry>
        </mxCell>
        <mxCell id="1ritAqMeykAcv_voQN3b-106" value="" style="endArrow=block;endFill=0;endSize=12;html=1;rounded=0;exitX=0.5;exitY=0;exitDx=0;exitDy=0;entryX=1;entryY=1;entryDx=0;entryDy=0;" edge="1" parent="WIyWlLk6GJQsqaUBKTNV-1" source="1ritAqMeykAcv_voQN3b-100" target="1ritAqMeykAcv_voQN3b-21">
          <mxGeometry width="160" relative="1" as="geometry">
            <mxPoint x="-440" y="360" as="sourcePoint" />
            <mxPoint x="-280" y="360" as="targetPoint" />
          </mxGeometry>
        </mxCell>
        <mxCell id="1ritAqMeykAcv_voQN3b-107" value="Tomate" style="swimlane;fontStyle=1;align=center;verticalAlign=top;childLayout=stackLayout;horizontal=1;startSize=26;horizontalStack=0;resizeParent=1;resizeParentMax=0;resizeLast=0;collapsible=1;marginBottom=0;whiteSpace=wrap;html=1;" vertex="1" parent="WIyWlLk6GJQsqaUBKTNV-1">
          <mxGeometry x="1170" y="500" width="160" height="60" as="geometry" />
        </mxCell>
        <mxCell id="1ritAqMeykAcv_voQN3b-109" value="" style="line;strokeWidth=1;fillColor=none;align=left;verticalAlign=middle;spacingTop=-1;spacingLeft=3;spacingRight=3;rotatable=0;labelPosition=right;points=[];portConstraint=eastwest;strokeColor=inherit;" vertex="1" parent="1ritAqMeykAcv_voQN3b-107">
          <mxGeometry y="26" width="160" height="8" as="geometry" />
        </mxCell>
        <mxCell id="1ritAqMeykAcv_voQN3b-110" value="+ getPrecio(): Real" style="text;strokeColor=none;fillColor=none;align=left;verticalAlign=top;spacingLeft=4;spacingRight=4;overflow=hidden;rotatable=0;points=[[0,0.5],[1,0.5]];portConstraint=eastwest;whiteSpace=wrap;html=1;" vertex="1" parent="1ritAqMeykAcv_voQN3b-107">
          <mxGeometry y="34" width="160" height="26" as="geometry" />
        </mxCell>
        <mxCell id="1ritAqMeykAcv_voQN3b-111" value="BerenjenasAlEscabeche" style="swimlane;fontStyle=1;align=center;verticalAlign=top;childLayout=stackLayout;horizontal=1;startSize=26;horizontalStack=0;resizeParent=1;resizeParentMax=0;resizeLast=0;collapsible=1;marginBottom=0;whiteSpace=wrap;html=1;" vertex="1" parent="WIyWlLk6GJQsqaUBKTNV-1">
          <mxGeometry x="1350" y="500" width="160" height="60" as="geometry" />
        </mxCell>
        <mxCell id="1ritAqMeykAcv_voQN3b-112" value="" style="line;strokeWidth=1;fillColor=none;align=left;verticalAlign=middle;spacingTop=-1;spacingLeft=3;spacingRight=3;rotatable=0;labelPosition=right;points=[];portConstraint=eastwest;strokeColor=inherit;" vertex="1" parent="1ritAqMeykAcv_voQN3b-111">
          <mxGeometry y="26" width="160" height="8" as="geometry" />
        </mxCell>
        <mxCell id="1ritAqMeykAcv_voQN3b-113" value="+ getPrecio(): Real" style="text;strokeColor=none;fillColor=none;align=left;verticalAlign=top;spacingLeft=4;spacingRight=4;overflow=hidden;rotatable=0;points=[[0,0.5],[1,0.5]];portConstraint=eastwest;whiteSpace=wrap;html=1;" vertex="1" parent="1ritAqMeykAcv_voQN3b-111">
          <mxGeometry y="34" width="160" height="26" as="geometry" />
        </mxCell>
        <mxCell id="1ritAqMeykAcv_voQN3b-114" value="NullAdicional" style="swimlane;fontStyle=1;align=center;verticalAlign=top;childLayout=stackLayout;horizontal=1;startSize=26;horizontalStack=0;resizeParent=1;resizeParentMax=0;resizeLast=0;collapsible=1;marginBottom=0;whiteSpace=wrap;html=1;" vertex="1" parent="WIyWlLk6GJQsqaUBKTNV-1">
          <mxGeometry x="1530" y="500" width="160" height="60" as="geometry" />
        </mxCell>
        <mxCell id="1ritAqMeykAcv_voQN3b-115" value="" style="line;strokeWidth=1;fillColor=none;align=left;verticalAlign=middle;spacingTop=-1;spacingLeft=3;spacingRight=3;rotatable=0;labelPosition=right;points=[];portConstraint=eastwest;strokeColor=inherit;" vertex="1" parent="1ritAqMeykAcv_voQN3b-114">
          <mxGeometry y="26" width="160" height="8" as="geometry" />
        </mxCell>
        <mxCell id="1ritAqMeykAcv_voQN3b-116" value="+ getPrecio(): Real" style="text;strokeColor=none;fillColor=none;align=left;verticalAlign=top;spacingLeft=4;spacingRight=4;overflow=hidden;rotatable=0;points=[[0,0.5],[1,0.5]];portConstraint=eastwest;whiteSpace=wrap;html=1;" vertex="1" parent="1ritAqMeykAcv_voQN3b-114">
          <mxGeometry y="34" width="160" height="26" as="geometry" />
        </mxCell>
        <mxCell id="1ritAqMeykAcv_voQN3b-117" value="VerdurasGrilladas" style="swimlane;fontStyle=1;align=center;verticalAlign=top;childLayout=stackLayout;horizontal=1;startSize=26;horizontalStack=0;resizeParent=1;resizeParentMax=0;resizeLast=0;collapsible=1;marginBottom=0;whiteSpace=wrap;html=1;" vertex="1" parent="WIyWlLk6GJQsqaUBKTNV-1">
          <mxGeometry x="1710" y="500" width="160" height="60" as="geometry" />
        </mxCell>
        <mxCell id="1ritAqMeykAcv_voQN3b-118" value="" style="line;strokeWidth=1;fillColor=none;align=left;verticalAlign=middle;spacingTop=-1;spacingLeft=3;spacingRight=3;rotatable=0;labelPosition=right;points=[];portConstraint=eastwest;strokeColor=inherit;" vertex="1" parent="1ritAqMeykAcv_voQN3b-117">
          <mxGeometry y="26" width="160" height="8" as="geometry" />
        </mxCell>
        <mxCell id="1ritAqMeykAcv_voQN3b-119" value="+ getPrecio(): Real" style="text;strokeColor=none;fillColor=none;align=left;verticalAlign=top;spacingLeft=4;spacingRight=4;overflow=hidden;rotatable=0;points=[[0,0.5],[1,0.5]];portConstraint=eastwest;whiteSpace=wrap;html=1;" vertex="1" parent="1ritAqMeykAcv_voQN3b-117">
          <mxGeometry y="34" width="160" height="26" as="geometry" />
        </mxCell>
        <mxCell id="1ritAqMeykAcv_voQN3b-121" value="" style="endArrow=block;endFill=0;endSize=12;html=1;rounded=0;exitX=0.5;exitY=0;exitDx=0;exitDy=0;entryX=0;entryY=1;entryDx=0;entryDy=0;" edge="1" parent="WIyWlLk6GJQsqaUBKTNV-1" source="1ritAqMeykAcv_voQN3b-107" target="1ritAqMeykAcv_voQN3b-28">
          <mxGeometry width="160" relative="1" as="geometry">
            <mxPoint x="1290" y="360" as="sourcePoint" />
            <mxPoint x="1450" y="360" as="targetPoint" />
          </mxGeometry>
        </mxCell>
        <mxCell id="1ritAqMeykAcv_voQN3b-122" value="" style="endArrow=block;endFill=0;endSize=12;html=1;rounded=0;exitX=0.5;exitY=0;exitDx=0;exitDy=0;entryX=0.25;entryY=1;entryDx=0;entryDy=0;" edge="1" parent="WIyWlLk6GJQsqaUBKTNV-1" source="1ritAqMeykAcv_voQN3b-111" target="1ritAqMeykAcv_voQN3b-28">
          <mxGeometry width="160" relative="1" as="geometry">
            <mxPoint x="1290" y="360" as="sourcePoint" />
            <mxPoint x="1450" y="360" as="targetPoint" />
          </mxGeometry>
        </mxCell>
        <mxCell id="1ritAqMeykAcv_voQN3b-123" value="" style="endArrow=block;endFill=0;endSize=12;html=1;rounded=0;exitX=0.5;exitY=0;exitDx=0;exitDy=0;entryX=0.75;entryY=1;entryDx=0;entryDy=0;" edge="1" parent="WIyWlLk6GJQsqaUBKTNV-1" source="1ritAqMeykAcv_voQN3b-114" target="1ritAqMeykAcv_voQN3b-28">
          <mxGeometry width="160" relative="1" as="geometry">
            <mxPoint x="1290" y="360" as="sourcePoint" />
            <mxPoint x="1450" y="360" as="targetPoint" />
          </mxGeometry>
        </mxCell>
        <mxCell id="1ritAqMeykAcv_voQN3b-124" value="" style="endArrow=block;endFill=0;endSize=12;html=1;rounded=0;exitX=0.5;exitY=0;exitDx=0;exitDy=0;entryX=1;entryY=1;entryDx=0;entryDy=0;" edge="1" parent="WIyWlLk6GJQsqaUBKTNV-1" source="1ritAqMeykAcv_voQN3b-117" target="1ritAqMeykAcv_voQN3b-28">
          <mxGeometry width="160" relative="1" as="geometry">
            <mxPoint x="1290" y="360" as="sourcePoint" />
            <mxPoint x="1720" y="430" as="targetPoint" />
          </mxGeometry>
        </mxCell>
        <mxCell id="1ritAqMeykAcv_voQN3b-125" value="&lt;div&gt;&lt;b&gt;&amp;lt;&amp;lt;interface&amp;gt;&amp;gt;&lt;br&gt;&lt;/b&gt;&lt;/div&gt;&lt;div&gt;&lt;b&gt;SandwichCreator&lt;/b&gt;&lt;/div&gt;" style="swimlane;fontStyle=0;childLayout=stackLayout;horizontal=1;startSize=40;fillColor=none;horizontalStack=0;resizeParent=1;resizeParentMax=0;resizeLast=0;collapsible=1;marginBottom=0;whiteSpace=wrap;html=1;" vertex="1" parent="WIyWlLk6GJQsqaUBKTNV-1">
          <mxGeometry x="355" y="-400" width="170" height="66" as="geometry" />
        </mxCell>
        <mxCell id="1ritAqMeykAcv_voQN3b-126" value="+ crearSandwich(): Sandwich" style="text;strokeColor=none;fillColor=none;align=left;verticalAlign=top;spacingLeft=4;spacingRight=4;overflow=hidden;rotatable=0;points=[[0,0.5],[1,0.5]];portConstraint=eastwest;whiteSpace=wrap;html=1;" vertex="1" parent="1ritAqMeykAcv_voQN3b-125">
          <mxGeometry y="40" width="170" height="26" as="geometry" />
        </mxCell>
        <mxCell id="1ritAqMeykAcv_voQN3b-129" value="&lt;b&gt;ClasicoCreator&lt;/b&gt;" style="swimlane;fontStyle=0;childLayout=stackLayout;horizontal=1;startSize=30;fillColor=none;horizontalStack=0;resizeParent=1;resizeParentMax=0;resizeLast=0;collapsible=1;marginBottom=0;whiteSpace=wrap;html=1;" vertex="1" parent="WIyWlLk6GJQsqaUBKTNV-1">
          <mxGeometry x="70" y="-250" width="170" height="56" as="geometry" />
        </mxCell>
        <mxCell id="1ritAqMeykAcv_voQN3b-130" value="+ crearSandwich(): Sandwich" style="text;strokeColor=none;fillColor=none;align=left;verticalAlign=top;spacingLeft=4;spacingRight=4;overflow=hidden;rotatable=0;points=[[0,0.5],[1,0.5]];portConstraint=eastwest;whiteSpace=wrap;html=1;" vertex="1" parent="1ritAqMeykAcv_voQN3b-129">
          <mxGeometry y="30" width="170" height="26" as="geometry" />
        </mxCell>
        <mxCell id="1ritAqMeykAcv_voQN3b-131" value="&lt;b&gt;VegetarianoCreator&lt;/b&gt;" style="swimlane;fontStyle=0;childLayout=stackLayout;horizontal=1;startSize=30;fillColor=none;horizontalStack=0;resizeParent=1;resizeParentMax=0;resizeLast=0;collapsible=1;marginBottom=0;whiteSpace=wrap;html=1;" vertex="1" parent="WIyWlLk6GJQsqaUBKTNV-1">
          <mxGeometry x="260" y="-250" width="170" height="56" as="geometry" />
        </mxCell>
        <mxCell id="1ritAqMeykAcv_voQN3b-132" value="+ crearSandwich(): Sandwich" style="text;strokeColor=none;fillColor=none;align=left;verticalAlign=top;spacingLeft=4;spacingRight=4;overflow=hidden;rotatable=0;points=[[0,0.5],[1,0.5]];portConstraint=eastwest;whiteSpace=wrap;html=1;" vertex="1" parent="1ritAqMeykAcv_voQN3b-131">
          <mxGeometry y="30" width="170" height="26" as="geometry" />
        </mxCell>
        <mxCell id="1ritAqMeykAcv_voQN3b-133" value="&lt;b&gt;VeganoCreator&lt;/b&gt;" style="swimlane;fontStyle=0;childLayout=stackLayout;horizontal=1;startSize=30;fillColor=none;horizontalStack=0;resizeParent=1;resizeParentMax=0;resizeLast=0;collapsible=1;marginBottom=0;whiteSpace=wrap;html=1;" vertex="1" parent="WIyWlLk6GJQsqaUBKTNV-1">
          <mxGeometry x="450" y="-250" width="170" height="56" as="geometry" />
        </mxCell>
        <mxCell id="1ritAqMeykAcv_voQN3b-134" value="+ crearSandwich(): Sandwich" style="text;strokeColor=none;fillColor=none;align=left;verticalAlign=top;spacingLeft=4;spacingRight=4;overflow=hidden;rotatable=0;points=[[0,0.5],[1,0.5]];portConstraint=eastwest;whiteSpace=wrap;html=1;" vertex="1" parent="1ritAqMeykAcv_voQN3b-133">
          <mxGeometry y="30" width="170" height="26" as="geometry" />
        </mxCell>
        <mxCell id="1ritAqMeykAcv_voQN3b-135" value="&lt;b&gt;SinTACCCreator&lt;/b&gt;" style="swimlane;fontStyle=0;childLayout=stackLayout;horizontal=1;startSize=30;fillColor=none;horizontalStack=0;resizeParent=1;resizeParentMax=0;resizeLast=0;collapsible=1;marginBottom=0;whiteSpace=wrap;html=1;" vertex="1" parent="WIyWlLk6GJQsqaUBKTNV-1">
          <mxGeometry x="640" y="-250" width="170" height="56" as="geometry" />
        </mxCell>
        <mxCell id="1ritAqMeykAcv_voQN3b-136" value="+ crearSandwich(): Sandwich" style="text;strokeColor=none;fillColor=none;align=left;verticalAlign=top;spacingLeft=4;spacingRight=4;overflow=hidden;rotatable=0;points=[[0,0.5],[1,0.5]];portConstraint=eastwest;whiteSpace=wrap;html=1;" vertex="1" parent="1ritAqMeykAcv_voQN3b-135">
          <mxGeometry y="30" width="170" height="26" as="geometry" />
        </mxCell>
        <mxCell id="1ritAqMeykAcv_voQN3b-137" value="" style="endArrow=block;dashed=1;endFill=0;endSize=12;html=1;rounded=0;exitX=0.75;exitY=0;exitDx=0;exitDy=0;entryX=0;entryY=1;entryDx=0;entryDy=0;" edge="1" parent="WIyWlLk6GJQsqaUBKTNV-1" source="1ritAqMeykAcv_voQN3b-129" target="1ritAqMeykAcv_voQN3b-125">
          <mxGeometry width="160" relative="1" as="geometry">
            <mxPoint x="310" y="-220" as="sourcePoint" />
            <mxPoint x="470" y="-220" as="targetPoint" />
          </mxGeometry>
        </mxCell>
        <mxCell id="1ritAqMeykAcv_voQN3b-138" value="" style="endArrow=block;dashed=1;endFill=0;endSize=12;html=1;rounded=0;exitX=0.5;exitY=0;exitDx=0;exitDy=0;entryX=0.25;entryY=1;entryDx=0;entryDy=0;" edge="1" parent="WIyWlLk6GJQsqaUBKTNV-1" source="1ritAqMeykAcv_voQN3b-131" target="1ritAqMeykAcv_voQN3b-125">
          <mxGeometry width="160" relative="1" as="geometry">
            <mxPoint x="310" y="-220" as="sourcePoint" />
            <mxPoint x="470" y="-220" as="targetPoint" />
          </mxGeometry>
        </mxCell>
        <mxCell id="1ritAqMeykAcv_voQN3b-139" value="" style="endArrow=block;dashed=1;endFill=0;endSize=12;html=1;rounded=0;exitX=0.5;exitY=0;exitDx=0;exitDy=0;entryX=0.75;entryY=1;entryDx=0;entryDy=0;" edge="1" parent="WIyWlLk6GJQsqaUBKTNV-1" source="1ritAqMeykAcv_voQN3b-133" target="1ritAqMeykAcv_voQN3b-125">
          <mxGeometry width="160" relative="1" as="geometry">
            <mxPoint x="310" y="-220" as="sourcePoint" />
            <mxPoint x="470" y="-220" as="targetPoint" />
          </mxGeometry>
        </mxCell>
        <mxCell id="1ritAqMeykAcv_voQN3b-140" value="" style="endArrow=block;dashed=1;endFill=0;endSize=12;html=1;rounded=0;exitX=0.25;exitY=0;exitDx=0;exitDy=0;entryX=1;entryY=1;entryDx=0;entryDy=0;" edge="1" parent="WIyWlLk6GJQsqaUBKTNV-1" source="1ritAqMeykAcv_voQN3b-135" target="1ritAqMeykAcv_voQN3b-125">
          <mxGeometry width="160" relative="1" as="geometry">
            <mxPoint x="310" y="-220" as="sourcePoint" />
            <mxPoint x="470" y="-220" as="targetPoint" />
          </mxGeometry>
        </mxCell>
        <mxCell id="1ritAqMeykAcv_voQN3b-141" value="" style="endArrow=block;dashed=1;endFill=0;endSize=12;html=1;rounded=0;exitX=0.5;exitY=0;exitDx=0;exitDy=0;entryX=0.5;entryY=0;entryDx=0;entryDy=0;" edge="1" parent="WIyWlLk6GJQsqaUBKTNV-1" source="1ritAqMeykAcv_voQN3b-125" target="1ritAqMeykAcv_voQN3b-9">
          <mxGeometry width="160" relative="1" as="geometry">
            <mxPoint x="310" y="-60" as="sourcePoint" />
            <mxPoint x="440" y="-150" as="targetPoint" />
            <Array as="points">
              <mxPoint x="440" y="-520" />
              <mxPoint x="30" y="-520" />
              <mxPoint x="30" y="-150" />
              <mxPoint x="440" y="-150" />
            </Array>
          </mxGeometry>
        </mxCell>
        <mxCell id="1ritAqMeykAcv_voQN3b-142" value="creates" style="edgeLabel;html=1;align=center;verticalAlign=middle;resizable=0;points=[];" vertex="1" connectable="0" parent="1ritAqMeykAcv_voQN3b-141">
          <mxGeometry x="0.4832" y="-1" relative="1" as="geometry">
            <mxPoint as="offset" />
          </mxGeometry>
        </mxCell>
      </root>
    </mxGraphModel>
  </diagram>
</mxfile>
